PathFileType	4	(X/Y/Z)	T:\Spectrum_Optical_Capture\Spectrum_Demo_10_05_01_TRUECOMBAT\07_Smooth_Trc\TC_Stairs_1.trc
DataRate	CameraRate	NumFrames	NumMarkers	Units	OrigDataRate	OrigDataStartFrame	OrigNumFrames
60.0	60.0	       4	46	mm	60.0	90	       716
Frame#	Time	HeadTop			ForeHead			LFrontHead			RFrontHead			TopSpine			Sternum			Scapula			LFShoulder			LShoulder			LBicep			LOuterElbow			LHand			LWristPinky			LWristThumb			RFShoulder			RShoulder			RBicep			ROuterElbow			RHand			RWristPinky			RWristThumb			MiddleBack			LowerBack			Root			Pelvis			LBackWaist			RBackWaist			LFrontWaist			RFrontWaist			Bellymarker			LThigh			LOuterKnee			LAnkle			LHeel			LOuterMeta			LToe			RThigh			ROuterKnee			RAnkle			RHeel			ROuterMeta			RToe			Floor1			Floor2			Floor3			Floor4			
		X1	Y1	Z1	X2	Y2	Z2	X3	Y3	Z3	X4	Y4	Z4	X5	Y5	Z5	X6	Y6	Z6	X7	Y7	Z7	X8	Y8	Z8	X9	Y9	Z9	X10	Y10	Z10	X11	Y11	Z11	X12	Y12	Z12	X13	Y13	Z13	X14	Y14	Z14	X15	Y15	Z15	X16	Y16	Z16	X17	Y17	Z17	X18	Y18	Z18	X19	Y19	Z19	X20	Y20	Z20	X21	Y21	Z21	X22	Y22	Z22	X23	Y23	Z23	X24	Y24	Z24	X25	Y25	Z25	X26	Y26	Z26	X27	Y27	Z27	X28	Y28	Z28	X29	Y29	Z29	X30	Y30	Z30	X31	Y31	Z31	X32	Y32	Z32	X33	Y33	Z33	X34	Y34	Z34	X35	Y35	Z35	X36	Y36	Z36	X37	Y37	Z37	X38	Y38	Z38	X39	Y39	Z39	X40	Y40	Z40	X41	Y41	Z41	X42	Y42	Z42	X43	Y43	Z43	X44	Y44	Z44	X45	Y45	Z45	X46	Y46	Z46	

90	1.483	371.90375	1688.26782	-2094.98438	360.54568	1576.73865	-1969.61829	457.09195	1562.06055	-2039.85925	271.67636	1574.28857	-2040.10144	357.63132	1373.62683	-2233.11450	350.05350	1160.21460	-1973.82397	230.03485	1242.85913	-2267.46509	432.04318	1287.51880	-2014.17334	559.69061	1356.92236	-2132.03784	616.38464	1133.93018	-2122.03320	577.41797	1037.27661	-2202.29224	631.53296	831.23743	-2078.59326	625.36554	746.31207	-2077.66895	591.51501	708.63538	-1987.77991	275.33704	1286.96179	-2017.78687	159.99280	1368.82349	-2127.09033	84.87724	1199.04089	-2180.47974	87.02372	1045.51953	-2196.24365	24.48258	854.82813	-2063.16504	7.62604	774.68274	-2083.42212	13.92797	734.58038	-1993.70813	356.44629	1284.56531	-2255.68750	350.89001	1157.38843	-2255.54419	343.88269	1041.70044	-2242.00537	492.21475	1070.08472	-2207.06738	480.14749	958.74017	-2223.96997	198.34354	962.00543	-2207.49292	511.20401	953.00702	-2079.48438	185.44792	959.70801	-2058.36963	351.79254	973.25848	-1960.55115	529.37762	697.16797	-2186.69824	514.26678	532.76489	-2193.58911	504.77328	128.39703	-2228.28809	429.75003	57.97421	-2274.81689	532.67682	42.67163	-2156.23462	492.85876	49.41264	-2032.21716	163.23770	689.47589	-2069.88916	186.34010	534.59747	-2148.35181	210.74281	146.21851	-2232.93164	293.81186	62.17556	-2298.24268	183.10684	37.97009	-2184.06104	220.05002	48.91289	-2065.03760	4200.91406	32.95352	-4241.27441	-3735.32959	-12.51234	-4194.44727	-3781.67651	-15.42445	4946.50928	4162.71045	21.57094	4907.44238	
91	1.500	371.55545	1687.25720	-2084.94971	359.45953	1569.88123	-1965.49658	456.16852	1558.79150	-2035.98596	270.81906	1571.26025	-2036.06738	357.26422	1373.31470	-2232.56787	348.88754	1160.21899	-1973.56482	228.92068	1243.04321	-2266.83667	430.63922	1287.81433	-2013.65686	559.01764	1357.18433	-2130.62720	616.18030	1134.32288	-2118.55078	579.86658	1037.42908	-2199.62451	627.89026	832.27753	-2070.93359	621.52655	747.54865	-2068.52759	584.54462	711.96588	-1979.10242	274.33884	1287.09375	-2017.27661	159.27975	1369.34900	-2126.56445	83.45064	1199.54016	-2179.07202	84.34290	1046.06702	-2194.29297	22.40840	855.95697	-2060.49780	5.49737	775.74005	-2080.36841	11.85498	736.24835	-1990.36133	356.11880	1284.43506	-2255.32129	350.28452	1157.15234	-2254.56665	343.39996	1041.69360	-2241.16162	491.98947	1070.09741	-2205.95239	479.66992	958.97717	-2223.12891	197.84743	961.96973	-2207.05493	509.79956	952.55170	-2078.98120	184.77522	959.46442	-2058.25293	351.06827	973.20374	-1959.92639	528.85175	697.29065	-2186.43726	513.65167	532.81781	-2193.74170	504.68695	128.36389	-2228.33032	429.80206	57.97152	-2274.81641	532.70349	42.60068	-2156.23877	493.18201	49.67297	-2032.27979	162.61000	689.26068	-2069.04761	185.84602	534.31470	-2147.63477	210.70142	146.30843	-2232.78003	293.88626	62.42950	-2298.07642	183.32617	38.08033	-2184.11914	220.01991	48.94256	-2064.97437	4200.93555	32.93451	-4241.29541	-3735.33813	-12.52225	-4194.43945	-3781.69946	-15.37074	4946.56250	4162.65332	21.67787	4907.46045	
92	1.517	370.97357	1685.31152	-2072.54639	358.06448	1561.10034	-1960.75403	455.15350	1554.40015	-2031.43396	269.82553	1567.06775	-2031.12561	356.60757	1372.77490	-2232.38794	347.58316	1160.33154	-1973.35181	227.72633	1242.85266	-2266.34912	429.06140	1288.19653	-2013.40637	558.03796	1357.27002	-2129.77637	616.33783	1134.94617	-2115.03833	583.09637	1037.52979	-2196.67212	625.68994	833.83057	-2062.59155	619.45966	749.33655	-2058.61938	579.41766	715.96411	-1969.73828	273.19791	1287.39526	-2017.06848	158.42473	1369.80200	-2126.44751	81.79399	1199.98352	-2177.85034	81.12017	1046.52673	-2192.37305	19.21431	857.41608	-2057.57983	2.32549	777.04810	-2076.85400	8.64171	738.32904	-1986.58154	355.60815	1284.09155	-2255.38428	349.58618	1156.71289	-2253.81421	342.83005	1041.54297	-2240.34668	491.59097	1069.85205	-2204.69019	478.94324	959.22229	-2222.36816	197.11485	961.83582	-2206.44824	508.29489	952.19238	-2078.37671	183.68497	959.24384	-2058.09888	350.00858	973.14160	-1959.30847	528.36011	697.42877	-2186.11548	512.97021	532.86108	-2193.85913	504.61432	128.37955	-2228.35327	429.85703	57.95324	-2274.78882	532.75732	42.54160	-2156.23486	493.34171	49.84397	-2032.30481	161.88409	688.99554	-2068.20361	185.37141	533.99786	-2146.90356	210.66042	146.31480	-2232.60083	293.89697	62.61362	-2297.96680	183.50999	38.14934	-2184.09253	219.99792	49.03196	-2064.99341	4200.94531	32.89441	-4241.30762	-3735.33838	-12.52342	-4194.42578	-3781.66406	-15.29802	4946.52393	4162.55908	21.71077	4907.39697	
93	1.533	370.10358	1682.20227	-2058.02051	356.35492	1550.57629	-1955.47363	454.03348	1548.89001	-2026.24487	268.69135	1561.66870	-2025.30090	355.73593	1372.05725	-2232.57446	346.18155	1160.49805	-1973.21533	226.48329	1242.25024	-2266.03223	427.39014	1288.53931	-2013.46143	556.75446	1357.17615	-2129.48291	616.67847	1135.77124	-2111.60693	586.72955	1037.52454	-2193.46729	624.65961	835.77319	-2053.80200	618.86353	751.60352	-2048.24731	575.85907	720.45837	-1960.02539	271.92673	1287.81274	-2017.27148	157.41205	1370.16467	-2126.78247	79.88239	1200.29443	-2176.89160	77.60291	1046.86426	-2190.59741	15.31313	859.03577	-2054.48291	-1.55250	778.53668	-2073.08325	4.66110	740.61377	-1982.50598	354.88058	1283.55164	-2255.86182	348.80002	1156.07739	-2253.33154	342.13297	1041.21851	-2239.58545	490.97043	1069.34497	-2203.32227	478.05167	959.45953	-2221.63867	196.18068	961.54120	-2205.72217	506.78632	951.94354	-2077.69458	182.18579	959.02020	-2057.87036	348.54047	973.06403	-1958.70398	527.83362	697.58197	-2185.73853	512.27582	532.90192	-2193.88672	504.52563	128.43822	-2228.36646	429.89999	57.92158	-2274.74365	532.86847	42.52296	-2156.24219	493.34900	49.91056	-2032.30066	161.09958	688.69403	-2067.44336	184.91354	533.59668	-2146.09180	210.63745	146.21980	-2232.35938	293.86365	62.67075	-2297.93896	183.65048	38.16873	-2183.98511	220.00845	49.16899	-2065.07788	4200.93164	32.85522	-4241.30322	-3735.33032	-12.51446	-4194.40918	-3781.57886	-15.24082	4946.38623	4162.48242	21.68007	4907.27832	
